<svg width="45" height="44" viewBox="0 0 45 44" fill="none" xmlns="http://www.w3.org/2000/svg">
<rect x="0.75" width="44" height="44" rx="22" fill="#703BF7"/>
<path d="M32.1774 12.5783C31.6774 12.0673 30.9374 11.8783 30.2474 12.0783L14.1574 16.7273C13.4294 16.9293 12.9134 17.5063 12.7744 18.2383C12.6324 18.9843 13.1284 19.9323 13.7764 20.3283L18.8074 23.4003C19.3234 23.7163 19.9894 23.6373 20.4164 23.2093L26.1774 17.4483C26.4674 17.1473 26.9474 17.1473 27.2374 17.4483C27.5274 17.7373 27.5274 18.2083 27.2374 18.5083L21.4664 24.2693C21.0384 24.6973 20.9584 25.3613 21.2734 25.8783L24.3474 30.9283C24.7074 31.5273 25.3274 31.8683 26.0074 31.8683C26.0874 31.8683 26.1774 31.8683 26.2574 31.8573C27.0374 31.7583 27.6574 31.2273 27.8874 30.4773L32.6574 14.5083C32.8674 13.8283 32.6774 13.0883 32.1774 12.5783Z" fill="white"/>
<path opacity="0.4" d="M20.2014 29.1423C20.4934 29.4353 20.4934 29.9103 20.2014 30.2033L18.8354 31.5683C18.6894 31.7153 18.4974 31.7883 18.3054 31.7883C18.1134 31.7883 17.9214 31.7153 17.7754 31.5683C17.4824 31.2753 17.4824 30.8013 17.7754 30.5083L19.1404 29.1423C19.4334 28.8503 19.9084 28.8503 20.2014 29.1423ZM19.4177 25.3543C19.7097 25.6473 19.7097 26.1223 19.4177 26.4153L18.0517 27.7803C17.9057 27.9273 17.7137 28.0003 17.5217 28.0003C17.3297 28.0003 17.1377 27.9273 16.9917 27.7803C16.6987 27.4873 16.6987 27.0133 16.9917 26.7203L18.3567 25.3543C18.6497 25.0623 19.1247 25.0623 19.4177 25.3543ZM15.6565 24.1619C15.9485 24.4549 15.9485 24.9299 15.6565 25.2229L14.2905 26.5879C14.1445 26.7349 13.9525 26.8079 13.7605 26.8079C13.5685 26.8079 13.3765 26.7349 13.2305 26.5879C12.9375 26.2949 12.9375 25.8209 13.2305 25.5279L14.5955 24.1619C14.8885 23.8699 15.3635 23.8699 15.6565 24.1619Z" fill="white"/>
</svg>
