<svg width="76" height="52" viewBox="0 0 76 52" fill="none" xmlns="http://www.w3.org/2000/svg">
<rect width="76" height="52" rx="26" fill="#703BF7"/>
<path d="M33.5502 35.75C42.6045 35.75 47.5583 28.2467 47.5583 21.7419C47.5583 21.5309 47.5536 21.3153 47.5442 21.1044C48.5079 20.4075 49.3395 19.5443 50 18.5553C49.1025 18.9546 48.1496 19.2154 47.1739 19.3287C48.2013 18.7129 48.9705 17.7455 49.3391 16.6058C48.3726 17.1786 47.3156 17.5826 46.2134 17.8006C45.4708 17.0116 44.489 16.4891 43.4197 16.3141C42.3504 16.139 41.2532 16.3211 40.2977 16.8321C39.3423 17.3431 38.5818 18.1547 38.1338 19.1413C37.6859 20.1279 37.5754 21.2346 37.8195 22.2903C35.8625 22.1921 33.9479 21.6837 32.2 20.7981C30.452 19.9125 28.9097 18.6694 27.673 17.1495C27.0444 18.2332 26.8521 19.5156 27.135 20.7361C27.418 21.9565 28.1551 23.0234 29.1964 23.72C28.4146 23.6952 27.65 23.4847 26.9656 23.1059V23.1669C26.9649 24.3041 27.3581 25.4066 28.0783 26.2868C28.7985 27.167 29.8013 27.7706 30.9162 27.995C30.1921 28.1931 29.432 28.222 28.6948 28.0794C29.0095 29.0574 29.6216 29.9129 30.4458 30.5263C31.27 31.1398 32.2651 31.4806 33.2923 31.5012C31.5484 32.8711 29.3942 33.6141 27.1766 33.6106C26.7833 33.61 26.3904 33.5859 26 33.5384C28.2529 34.9837 30.8735 35.7514 33.5502 35.75Z" fill="white"/>
</svg>
