<svg class="world__background" width="5276" height="1960" viewBox="0 0 5276 1960" fill="none" xmlns="http://www.w3.org/2000/svg">
<path d="M1 1609.49C1758.77 1602.04 3516.96 1598.73 5274.72 1609.49" stroke="url(#paint0_linear_1_82)" stroke-miterlimit="10"/>
<path d="M1 1639.55C509.879 1605.49 1026.56 1593.88 1536.15 1620.76C1744.28 1631.74 1952.98 1637.15 2161.19 1625.61C2388.24 1613.02 2604.39 1562.78 2828.42 1532.1C3226.83 1477.5 3630.8 1605.77 4027.52 1627.16C4445.41 1649.75 4855.78 1591.07 5274.72 1644.54" stroke="url(#paint1_linear_1_82)" stroke-miterlimit="10"/>
<path d="M1 1653.64C529.568 1595.16 1077.4 1584.47 1607.24 1636.96C1819.66 1658 2033.85 1669.12 2246.62 1646.81C2497.72 1620.57 2715.63 1523.89 2957.24 1464.85C3360.78 1366.27 3759.2 1605.65 4155.36 1644.56C4329.25 1661.66 4501.39 1624.29 4674.86 1613.11C4879.97 1599.81 5075.66 1620.99 5274.72 1671.86" stroke="url(#paint2_linear_1_82)" stroke-miterlimit="10"/>
<path d="M1 1657.98C545.807 1578.96 1105.94 1588.67 1651.17 1661.92C1865.71 1690.7 2080.38 1706.53 2295.41 1673.18C2407.28 1655.8 2516.41 1626.6 2623.15 1588.96C2768.28 1537.8 2902.09 1443.8 3046.03 1396.8C3449.99 1264.87 3833.35 1601.48 4216.43 1661.64C4392.22 1689.22 4552.61 1632.02 4725.8 1612.25C4918.68 1590.22 5094.33 1627.94 5274.76 1696.12" stroke="url(#paint3_linear_1_82)" stroke-miterlimit="10"/>
<path d="M1 1644.81C534.349 1551.3 1079.23 1580.57 1610.68 1675.21C1841.32 1716.3 2072.31 1743.39 2304.35 1696.25C2598.98 1636.37 2816.25 1459.13 3085.99 1345.84C3523.43 1162.12 3871.77 1607.8 4279.82 1675.56C4440.91 1702.3 4573.74 1634.05 4727.94 1604.28C4925.89 1566.08 5096.89 1622.3 5274.72 1708.21" stroke="url(#paint4_linear_1_82)" stroke-miterlimit="10"/>
<path d="M1 1629.36C534.771 1519.73 1058.35 1584.61 1584.24 1703.31C1815.58 1755.52 2047.56 1784.09 2280.94 1726.32C2402.09 1696.34 2516.57 1647.44 2627.1 1590.03C2792.56 1504.11 2938.96 1360.58 3104.97 1283.81C3551.2 1077.44 3869.59 1597.84 4266.53 1684.24C4447.17 1723.57 4567.34 1637.17 4733.92 1594.74C4931.93 1544.36 5104.56 1625.63 5274.72 1721.82" stroke="url(#paint5_linear_1_82)" stroke-miterlimit="10"/>
<path d="M1 1603.13C524.228 1478.8 1004.14 1582.58 1511.12 1720.71C1746.55 1784.81 1981.83 1823.58 2221.54 1757.08C2348.39 1721.9 2466.45 1663.92 2579.8 1597.85C2757.42 1494.35 2910.64 1329.35 3089.46 1235.48C3559.1 989.002 3837.63 1593.35 4243.5 1689.61C4434.27 1734.85 4546 1631.14 4715.88 1577.59C4921.49 1512.78 5104.24 1620.44 5274.69 1727.04" stroke="url(#paint6_linear_1_82)" stroke-miterlimit="10"/>
<path d="M1 1567.91C500.668 1430.14 925.027 1566.22 1398.54 1722C1633.39 1799.26 1867.62 1857.1 2112.39 1793.77C2484.78 1697.44 2727.52 1404.31 3040.49 1206.8C3548.74 886.162 3775.23 1600.2 4218.64 1691.11C4410.61 1730.51 4519.18 1608.01 4688.85 1548.84C4903.74 1473.9 5102.1 1608.86 5274.72 1724.18" stroke="url(#paint7_linear_1_82)" stroke-miterlimit="10"/>
<path d="M1 1532.94C485.831 1376.24 858.086 1552.36 1303.33 1726.93C1543.74 1821.15 1786.89 1897.56 2043.06 1819.67C2422.84 1704.2 2670.35 1389.68 2984.31 1170.92C3518.08 799.052 3693.31 1593.66 4151.77 1687.1C4346.9 1726.86 4467.35 1590.92 4634.42 1524.57C4870.41 1430.84 5087.05 1590.36 5274.72 1721.44" stroke="url(#paint8_linear_1_82)" stroke-miterlimit="10"/>
<path d="M1 1498.44C218.207 1415.62 430.211 1396.55 654.872 1463.39C862.305 1525.1 1040.42 1649.72 1236.18 1737.88C1467.38 1842.02 1704.91 1933.35 1957.9 1850.39C2359.76 1718.6 2601.65 1360.74 2929.6 1123.33C3460.63 738.872 3615.12 1558.38 4051.08 1668.92C4271.8 1724.86 4399.71 1562.68 4587.38 1488.51C4841.01 1388.25 5077.98 1575.41 5274.72 1717.19" stroke="url(#paint9_linear_1_82)" stroke-miterlimit="10"/>
<path d="M1 1461.95C196.481 1373.36 391.258 1345.78 597.709 1415.02C801.065 1483.2 966.239 1626.74 1153.56 1726.1C1371.48 1841.7 1595.72 1957.73 1846.47 1883.71C2266.89 1759.73 2530.79 1357.81 2857.06 1097.75C3413.41 654.246 3505.73 1546.11 3961.53 1648.77C4195.4 1701.47 4341.03 1513.39 4541.85 1440.07C4812.01 1341.49 5071.13 1556.87 5274.69 1707.59" stroke="url(#paint10_linear_1_82)" stroke-miterlimit="10"/>
<path d="M1 1427.74C452.782 1184.99 724.133 1472.14 1092.1 1704.19C1301.08 1835.98 1526.09 1988.46 1782.18 1903.6C2196.91 1766.18 2469.74 1353.01 2784.12 1078.25C2987.05 900.932 3181.34 859.77 3355.16 1084.09C3505.92 1278.57 3602.74 1558.68 3871 1615.04C4104.59 1664.09 4269.55 1471.57 4469.95 1393.12C4764.86 1277.58 5056.81 1530.19 5274.72 1695.75" stroke="url(#paint11_linear_1_82)" stroke-miterlimit="10"/>
<path d="M1 1397.42C438.579 1122.23 711.265 1407.97 1056.38 1667.33C1240.47 1805.67 1448.88 1997.27 1697.59 1932.32C1848.98 1892.78 1983.22 1780.41 2098.82 1681.19C2321.02 1490.58 2505.46 1265.7 2716.41 1064.32C2918.64 871.242 3117.98 795.25 3291.38 1049.96C3420.62 1239.8 3519.77 1533.08 3779.59 1574.52C4026.61 1613.93 4207.39 1401.85 4424.04 1328.53C4736.52 1222.71 5051.54 1507.12 5274.72 1681.48" stroke="url(#paint12_linear_1_82)" stroke-miterlimit="10"/>
<path d="M1 1374.22C171.586 1251.43 359.822 1174.39 567.675 1249.18C752.746 1315.82 896.613 1470.61 1038.86 1599.59C1199.18 1744.96 1401.69 2003.05 1647.8 1952.31C1786.32 1923.75 1908.18 1817.64 2011.68 1727.3C2240.14 1527.82 2440.4 1296.75 2645.79 1074.47C2838.03 866.341 3051.09 716.609 3230.39 1006.29C3351.13 1201.27 3444.86 1509.66 3718.67 1520.5C3961.68 1530.14 4144.29 1335.94 4363.32 1264.31C4699.29 1154.47 5040.11 1477.3 5274.76 1666.92" stroke="url(#paint13_linear_1_82)" stroke-miterlimit="10"/>
<path d="M1 1341.83C176.088 1205.33 371.145 1114.7 592.29 1193.36C778.91 1259.72 933.465 1411 1071.43 1547.01C1214.87 1688.51 1407.4 1966.44 1642.25 1919.02C1773.67 1892.49 1889.27 1786.17 1986.17 1699.91C2207.74 1502.54 2405.61 1277.52 2605.8 1059.18C2789.11 859.281 3004.42 677.041 3186.26 965.389C3305.23 1154.03 3395.59 1455.11 3664.27 1458.84C3905.17 1462.15 4106.07 1287.16 4331.01 1227.21C4681.11 1133.84 5023.27 1439.92 5274.72 1635.45" stroke="url(#paint14_linear_1_82)" stroke-miterlimit="10"/>
<path d="M1 1290.18C194.158 1138.12 400.253 1056.36 636.374 1161.9C831.641 1249.22 1002.65 1414.44 1153.76 1560.72C1289.33 1692.02 1457.31 1913.59 1671.07 1844.56C1801.51 1802.41 1914.93 1689.83 2012.24 1599.35C2207.3 1418.02 2388.57 1221.64 2572.59 1029.27C2747.96 845.836 2960.73 667.397 3149.25 923.165C3283.34 1105.12 3368.71 1396.14 3636.4 1409.44C3874.84 1421.26 4105.4 1263.86 4335.27 1221.64C4682.91 1157.75 5006.22 1397.55 5274.76 1582.32" stroke="url(#paint15_linear_1_82)" stroke-miterlimit="10"/>
<path d="M1 1229.96C208.713 1071.37 420.364 1001.64 663.023 1126.88C848.938 1222.79 1020.51 1377.23 1173.45 1518.17C1315.98 1649.53 1490.99 1875.89 1706.37 1775.69C1818.8 1723.41 1911.34 1623.85 1999.66 1539.63C2185.43 1362.32 2361.15 1174.31 2542.57 992.632C2730.24 804.694 2942.87 658.973 3137.58 908.83C3271.6 1080.87 3368.14 1351.69 3622.26 1362.95C3856.06 1373.36 4088.32 1261.27 4316.49 1223.98C4668.7 1166.43 4981.4 1346.13 5274.76 1519.29" stroke="url(#paint16_linear_1_82)" stroke-miterlimit="10"/>
<path d="M1 1166.86C240.569 993.903 469.099 954.781 724.209 1115.7C907.525 1231.31 1076.99 1387.94 1241.04 1529.16C1378.01 1647.09 1532.08 1832.21 1723.76 1724.98C1826.43 1667.56 1911.86 1565.19 1993.64 1482.37C2167.74 1305.97 2337.28 1125.27 2516.44 953.937C2702.08 776.409 2914.58 648.277 3112.17 872.596C3259.69 1040.06 3361.86 1307.16 3615.36 1331.37C3838.75 1352.69 4082.19 1265.3 4301.93 1231.24C4653.09 1176.85 4962.06 1301.04 5274.69 1452.67" stroke="url(#paint17_linear_1_82)" stroke-miterlimit="10"/>
<path d="M1 1098.14C260.538 923.433 499.191 904.716 759.291 1087.52C955.544 1225.43 1131.9 1399.72 1318.52 1550.85C1446.84 1654.71 1588.81 1797.12 1749.2 1677.79C1855.24 1598.91 1941.8 1480.07 2029.84 1383.25C2178.7 1219.66 2331.28 1058.25 2495.05 909.501C2695.73 727.192 2913.36 641.068 3115.45 860.81C3263.4 1021.66 3376.75 1272.71 3619.83 1299.94C3849.9 1325.69 4098.68 1265.25 4326.58 1233.94C4661.71 1187.93 4959.99 1262.86 5274.72 1379.45" stroke="url(#paint18_linear_1_82)" stroke-miterlimit="10"/>
<path d="M1 1029.26C296.889 844.138 548.409 863.84 820.039 1080.84C1026.13 1245.49 1201.78 1437.08 1416.6 1592.44C1563.98 1698.97 1670.23 1759.13 1804.74 1610.67C2033.34 1358.35 2218.48 1070.78 2486.31 853.215C2682.92 693.562 2899.21 634.035 3095.11 819.863C3260.63 976.842 3372.01 1217.83 3610.94 1274.41C3831.52 1326.54 4108.36 1275.11 4330.13 1244.85C4657.45 1200.17 4952.85 1226.42 5274.76 1305.79" stroke="url(#paint19_linear_1_82)" stroke-miterlimit="10"/>
<path d="M1 959.03C332.328 765.604 602.13 828.437 881.495 1076.04C1081.61 1253.43 1248.05 1458.82 1475.17 1604.54C1641.89 1711.56 1729.64 1730.49 1843.7 1560.07C2024.41 1290.09 2206.32 1014.12 2469.58 814.998C2682.42 653.938 2898.08 617.772 3106.08 803.459C3279.26 958.116 3402.53 1206.92 3647.44 1261.66C3864.64 1310.21 4118.13 1287.13 4337.1 1257.3C4654.99 1213.95 4953.62 1194.39 5274.76 1230.21" stroke="url(#paint20_linear_1_82)" stroke-miterlimit="10"/>
<path d="M1 890.515C362.142 691.037 644.671 789.334 930.927 1062.27C1133.51 1255.42 1300.51 1491.34 1549.92 1628.27C1735.06 1729.94 1800.03 1677.1 1888.35 1502.81C2028.84 1225.65 2206.53 945.538 2466.76 764.988C2687.06 612.09 2909.9 607.376 3116.83 783.071C3297.34 936.391 3428.83 1178.72 3670.64 1246.69C4189.29 1392.48 4753.72 1174.57 5274.76 1156.49" stroke="url(#paint21_linear_1_82)" stroke-miterlimit="10"/>
<path d="M1 827.506C180.657 731.743 349.555 674.89 550.588 744.619C716.885 802.316 853.087 923.41 975.085 1046.75C1176.33 1250.38 1348.39 1524.37 1616.51 1645.4C1817.61 1736.16 1865.21 1613.87 1933.07 1443.25C2043.67 1164.89 2210.67 879.715 2471.62 716.756C3040.33 361.497 3245.58 1080.32 3698.06 1236.17C4226.49 1418.2 4758.01 1188.53 5274.76 1088.41" stroke="url(#paint22_linear_1_82)" stroke-miterlimit="10"/>
<path d="M1 769.935C188.393 670.723 361.09 615.417 565.781 690.776C737.493 753.962 876.298 883.079 1000.69 1013.88C1196.31 1219.56 1398.61 1575.59 1690.42 1657.5C1894.69 1714.84 1926.89 1523.6 1978.65 1369.64C2069.21 1100.15 2225.32 803.006 2486.47 660.45C3028.61 364.502 3301.65 1029.93 3710.96 1218.01C4247.97 1464.77 4767.95 1211.75 5274.72 1026.13" stroke="url(#paint23_linear_1_82)" stroke-miterlimit="10"/>
<path d="M1 714.934C190.22 611.924 360.665 555.986 568.941 628.952C741.636 689.463 882.76 824.487 1005.53 956.064C1204.74 1169.61 1418.29 1575.25 1728.03 1635.76C1938.55 1676.92 1968.09 1466.47 2014.07 1308.44C2093.04 1037.33 2235.21 737.239 2508.11 611.15C3051.02 360.31 3343.81 999.125 3744.26 1205.71C3952.75 1313.22 4222.69 1368.31 4454.94 1330.88C4749.36 1283.46 5018.6 1108.89 5274.76 967.252" stroke="url(#paint24_linear_1_82)" stroke-miterlimit="10"/>
<path d="M1 665.779C202.528 549.187 397.306 481.99 620.421 582.75C787.845 658.391 920.674 797.428 1040.7 932.385C1220.58 1134.61 1447.28 1560.66 1749.85 1592.6C1977.61 1616.67 2006.37 1367.79 2055.17 1199.77C2130.62 940.055 2266.47 661.627 2539.93 561.43C3078.77 363.92 3390.34 956.168 3779.12 1187.59C3975.59 1304.54 4232.39 1384.61 4462.18 1355.97C4770.03 1317.55 5036.46 1094.64 5274.69 914.865" stroke="url(#paint25_linear_1_82)" stroke-miterlimit="10"/>
<path d="M1 634.44C191.276 513.134 378.599 428.699 603.4 519.537C783.55 592.363 926.996 746.95 1050.75 891.404C1227.67 1097.92 1450.15 1521.93 1764.46 1529.38C1988.56 1534.66 2030.05 1282.2 2082.93 1113.61C2164.7 853.127 2294.02 600.455 2580.84 526.785C3130.08 385.637 3435.04 927.149 3828.04 1186.93C4020.42 1314.14 4277.01 1419.05 4511.37 1385.21C4817.88 1340.88 5064.13 1085.96 5274.72 881.483" stroke="url(#paint26_linear_1_82)" stroke-miterlimit="10"/>
<path d="M1 618.737C175.666 492.013 357.082 385.836 579.211 460.28C752.33 518.259 888.673 660.252 1005.19 794.926C1196.03 1015.44 1387.99 1407.72 1716.51 1432.77C1966.27 1451.77 2031.17 1208.87 2103.04 1016.71C2201.06 754.538 2337.68 532.543 2637.86 491.943C3170.02 419.962 3476.67 877.814 3846.39 1166.02C4031.74 1310.48 4282.7 1448.81 4525.22 1425.17C4846.92 1393.79 5083.68 1094.46 5274.72 865.008" stroke="url(#paint27_linear_1_82)" stroke-miterlimit="10"/>
<path d="M1 588.515C174.822 467.138 354.058 367.223 571.758 438.149C741.29 493.384 876.227 629.115 991.335 759.709C1176.76 969.954 1373.01 1373.56 1692.11 1384.6C1938.85 1393.12 2023.3 1174.43 2111.76 982.197C2225.18 735.856 2378.68 510.342 2669.79 471.008C3183.31 401.63 3504.09 829.368 3868.54 1102.94C4047.35 1237.12 4299.58 1373.63 4529.23 1369.12C4850.3 1362.79 5088.11 1057.2 5274.72 834.153" stroke="url(#paint28_linear_1_82)" stroke-miterlimit="10"/>
<path d="M1 569.256C172.081 452.102 348.717 354.93 562.128 419.524C727.021 469.411 859.991 596.487 973.271 720.888C1155.74 921.353 1351.15 1320.73 1659.91 1322.63C1902.02 1324.11 2005.1 1131.32 2110.79 943.517C2239.89 714.134 2409.35 494.038 2690.13 455.479C3185.09 387.579 3519.44 771.198 3884.11 1026.55C4061.16 1150.52 4310.65 1288.86 4529.76 1308.42C4849.21 1336.92 5090.88 1028.3 5274.69 813.275" stroke="url(#paint29_linear_1_82)" stroke-miterlimit="10"/>
<path d="M1 559.228C165.118 446.999 340.558 349.968 545.53 402.037C720.266 446.366 859.07 578.578 978.045 706.568C1158.9 901.122 1340.24 1262.51 1642.39 1249.07C1870.99 1238.94 1987.51 1065.28 2106.9 894.367C2253.51 684.404 2430.5 487.528 2698.97 449.391C3186.47 380.084 3528 711.705 3907.28 948.265C4082.51 1057.61 4304.85 1187.29 4506.73 1239.57C4833.98 1324.29 5083.18 1017.43 5274.72 800.714" stroke="url(#paint30_linear_1_82)" stroke-miterlimit="10"/>
<path d="M1 557.235C160.619 446.695 332.333 347.553 533.931 388.574C701.778 422.771 838.192 540.418 955.129 658.558C1138.52 843.755 1309.24 1176.36 1601.97 1163.34C1824.03 1153.49 1957.57 1007.28 2093.42 849.736C2256.2 661.021 2444.09 481.736 2702.22 444.162C3169.13 376.191 3526.9 641.32 3910.62 852.269C4101.03 956.969 4301.3 1084.96 4501.21 1169.68C4823.05 1306.11 5076.05 1010.87 5274.69 795.486" stroke="url(#paint31_linear_1_82)" stroke-miterlimit="10"/>
<path d="M1 552.722C336.828 314.475 627.303 315.671 932.263 598.176C1119.51 771.619 1278.64 1069.32 1561.1 1059.19C1775.91 1051.45 1925.26 932.96 2076.65 793.854C2255.04 629.98 2451.58 471.453 2699.44 434.583C3144.33 368.372 3521.01 560.11 3908.17 741.997C4121.3 842.122 4293.71 967.719 4492.21 1089.52C4805.68 1281.82 5061.56 1007.26 5274.76 787.38" stroke="url(#paint32_linear_1_82)" stroke-miterlimit="10"/>
<path d="M1 563.604C313.556 334.504 601.22 290.035 910.753 545.029C1102.93 703.344 1250.94 962.7 1521.94 957.353C1973.16 948.487 2251.05 506.259 2692.08 439.555C3114.54 375.666 3511.4 488.95 3899.97 639.033C4137.5 730.785 4287.06 860.745 4479.73 1019.27C4781.95 1267.93 5038.81 1024.69 5274.72 794.112" stroke="url(#paint33_linear_1_82)" stroke-miterlimit="10"/>
<path d="M1 579.348C286.836 361.364 572.25 269.047 884.454 484.991C1077.47 618.47 1219.02 841.521 1468.43 850.105C1916.91 865.655 2250.63 514.122 2681.04 446.925C3073.75 385.639 3493.47 419.624 3872.34 533.331C4142.07 614.318 4279.82 761.588 4469.95 958.182C4540.97 1031.64 4620.85 1108.13 4727.52 1119.67C4939.74 1142.53 5138.24 932.078 5274.72 805.706" stroke="url(#paint34_linear_1_82)" stroke-miterlimit="10"/>
<path d="M1 598.752C266.938 387.804 551.018 253.762 870.186 430.373C1067.64 539.647 1204.96 725.124 1440.46 738.844C1878.6 764.386 2247.69 529.444 2669.17 463.936C3047.27 405.183 3475.71 356.211 3853.31 437.269C4143.79 499.61 4274.44 673.477 4450.51 895.683C4517.94 980.823 4594.31 1078.77 4705.76 1105.51C4921.07 1157.15 5133.5 944.867 5274.69 821.099" stroke="url(#paint35_linear_1_82)" stroke-miterlimit="10"/>
<path d="M1 620.243C260.538 406.341 548.975 240.778 883.118 383.473C1065.31 461.294 1200.88 603.919 1403.6 623.761C1839.28 666.471 2235.44 550.584 2660.86 488.102C2885.02 455.173 3105.89 422.525 3328.16 377.704C3500.93 342.874 3668.84 324.791 3844.49 349.981C4147.98 393.465 4276.16 610.463 4433.53 846.88C4496.53 941.518 4572.26 1059.02 4686.74 1096.67C4906.13 1168.86 5124.95 963.4 5274.72 838.648" stroke="url(#paint36_linear_1_82)" stroke-miterlimit="10"/>
<path d="M1 663.318C250.971 450.683 539.545 253.669 881.207 344.788C1062.34 393.127 1208.52 505.565 1396.76 529.348C1826.17 583.527 2224.02 595.84 2653.08 536.032C2880.27 504.369 3093.26 457.719 3309.97 382.572C3476.83 324.734 3636.93 277.31 3815.82 289.976C4134.34 312.491 4263.72 568.821 4407.52 817.763C4468.76 923.798 4542.74 1060.23 4661.43 1111.81C4885.03 1208.98 5115.45 1004.79 5274.79 878.344" stroke="url(#paint37_linear_1_82)" stroke-miterlimit="10"/>
<path d="M1 703.827C247.459 489.219 534.912 270.038 880.657 303.249C1066.29 321.051 1236.18 408.864 1420.48 436.024C1841.74 498.155 2212.31 639.937 2645.03 587.094C2873.98 559.09 3079.73 499.281 3286.04 396.973C3441.44 319.925 3589.52 241.963 3767.56 239.711C4113.66 235.489 4244.38 537.981 4383.75 804.798C4443.94 920.053 4516.29 1070 4638.92 1131.78C4866.47 1246.47 5106.39 1044.45 5274.72 915.901" stroke="url(#paint38_linear_1_82)" stroke-miterlimit="10"/>
<path d="M1 730.468C252.522 508.894 540.748 275.43 889.869 252.351C1078.11 239.897 1276.26 295.906 1459.43 333.902C1871.41 419.322 2214.42 679.173 2651.93 631.889C2876.87 607.614 3075.51 534.366 3264.1 410.808C3416.26 311.104 3555.7 204.223 3744.64 193.176C4098.26 172.559 4227.78 523.882 4356.82 790.487C4418.13 917.071 4488.52 1070.18 4614.95 1145.12C4842 1279.65 5103.79 1067.08 5274.72 940.431" stroke="url(#paint39_linear_1_82)" stroke-miterlimit="10"/>
<path d="M1 738.398C431.409 360.126 885.023 68.4704 1470.97 210.182C1888.09 311.083 2209.37 703.498 2661.93 666.487C2891.23 647.7 3084.39 555.594 3258.85 409.732C3395.48 295.532 3517.19 170.286 3703.6 150.092C4059.13 111.603 4189.42 471.44 4311.28 737.694C4377.8 882.994 4449.81 1064.74 4594.17 1151.29C4826.91 1290.82 5097.21 1076.42 5274.69 947.236" stroke="url(#paint40_linear_1_82)" stroke-miterlimit="10"/>
<path d="M1 726.3C415.166 372.232 947.957 -19.4096 1527.37 142.989C1934.08 256.977 2241.36 691.048 2688.37 668.109C2911.91 656.64 3101.83 549.477 3259.62 397.633C3384.79 277.242 3496.66 141.441 3680.75 121.035C4021.79 83.1096 4160.59 438.303 4280.76 690.837C4352.7 841.906 4428.08 1026.82 4576.02 1119.77C4812.92 1268.59 5086.52 1065.38 5274.69 934.223" stroke="url(#paint41_linear_1_82)" stroke-miterlimit="10"/>
<path d="M1 686.8C416.64 347.79 962.295 -26.5418 1532.56 114.044C1951.72 217.337 2283.75 648.1 2737.57 618.618C2943.25 605.249 3115.59 505.263 3260.02 364.255C3375.27 251.744 3476.31 123.543 3644.58 96.0308C3980.2 41.1475 4146.01 405.277 4276.23 646.763C4351.05 785.378 4432.19 946.017 4567.98 1035.45C4805.43 1191.87 5072.64 1018.7 5274.72 888.531" stroke="url(#paint42_linear_1_82)" stroke-miterlimit="10"/>
<path d="M1 642.984C424.515 315.935 996.75 -45.7323 1562.8 98.3717C1974.36 203.143 2326.64 596.333 2770.76 572.198C2960.12 561.925 3125.93 460.954 3258.33 332.47C3364.44 229.529 3458.88 106.886 3611.32 74.5889C3941.67 4.64779 4131.66 371.593 4275.53 600.695C4362.02 738.397 4452.45 889.959 4600.95 967.851C4835.95 1091.06 5069.68 955.045 5274.72 833.246" stroke="url(#paint43_linear_1_82)" stroke-miterlimit="10"/>
<path d="M1 597.759C438.086 280.916 1024.24 -51.8291 1589.73 88.3333C1997.35 189.374 2364.61 553.43 2801.91 523.526C2978.05 511.494 3128.6 422.908 3254.47 304.487C3360.29 204.924 3455.36 83.5486 3606.54 55.6146C3920.64 -2.50488 4125.26 342.061 4278.55 555.541C4366.52 678.042 4459.76 803.006 4593.85 877.239C4827.16 1006.28 5062.3 888.145 5274.72 772.188" stroke="url(#paint44_linear_1_82)" stroke-miterlimit="10"/>
<path d="M1 548.507C441.107 251.929 1008.98 -34.3761 1560.82 69.6901C1987.91 150.255 2373.88 507.415 2822.42 475.963C2992.52 464.002 3137.37 377.174 3261.26 265.579C3362.59 174.249 3454.63 68.9865 3595.05 42.4598C3885.74 -12.4933 4102.17 284.296 4261.93 478.215C4366.49 605.219 4480.75 744.607 4637.2 809.552C4858.42 901.375 5076.18 803.29 5274.76 703.797" stroke="url(#paint45_linear_1_82)" stroke-miterlimit="10"/>
<path d="M1 496.554C452.083 217.494 1031.7 -38.5571 1578.42 66.0726C1995.19 145.864 2400.14 462.779 2836.03 430.623C3152.6 407.263 3290.77 96.7509 3576.12 33.8464C3863.01 -29.3396 4096.6 250.283 4272.96 431.257C4379 540.108 4489.68 654.448 4632.84 713.553C4854.48 805.025 5069.58 723.896 5274.69 630.314" stroke="url(#paint46_linear_1_82)" stroke-miterlimit="10"/>
<path d="M1 440.35C463.959 181.345 1032.6 -28.8989 1574.18 58.2805C1994.31 125.899 2406.72 413.19 2841.76 380.612C3140.6 358.237 3300.36 79.2486 3576.21 25.1396C3845.17 -27.562 4076.58 194.432 4261.29 356.618C4375.35 456.815 4492.7 561.937 4636.36 617.594C4856.38 702.873 5066.83 637.436 5274.76 551.382" stroke="url(#paint47_linear_1_82)" stroke-miterlimit="10"/>
<path d="M1 382.665C470.924 149.624 1033.24 -22.4829 1565.05 53.3681C1985.47 113.317 2407.65 361.838 2839.11 330.527C3125.86 309.699 3311.35 67.6517 3582.14 18.3978C3849.27 -30.2228 4092.57 170.381 4292.34 316.947C4400.83 396.527 4513.9 477.022 4641.88 522.335C4862.46 600.438 5063.78 548.932 5274.72 470.689" stroke="url(#paint48_linear_1_82)" stroke-miterlimit="10"/>
<path d="M1 322.311C475.916 119.103 1030.36 -16.9786 1551.69 47.4737C1972.81 99.5421 2398.93 307.323 2828.07 278.897C3109.69 260.251 3324.99 57.817 3596.7 13.6995C3847.44 -26.9702 4083.85 124.451 4289.03 247.726C4622.54 448.119 4897.76 511.376 5274.72 387.889" stroke="url(#paint49_linear_1_82)" stroke-miterlimit="10"/>
<path d="M1 260.263C478.729 90.4765 1004.62 -3.03614 1513.36 39.9557C1943.28 76.3335 2370.8 246.19 2805.14 224.378C3096.47 209.742 3346.09 37.0709 3632.84 7.79978C3869.73 -16.4051 4093.34 91.3208 4301.76 189.829C4636.04 347.935 4911.61 407.603 5274.72 305.225" stroke="url(#paint50_linear_1_82)" stroke-miterlimit="10"/>
<path d="M1 196.743C487.308 61.7873 1006.52 -1.04674 1511.47 34.7679C1932.87 64.6721 2355.89 190.27 2780.11 172.046C3078.04 159.24 3356.07 32.446 3651.68 6.41172C3900.46 -15.4711 4134.05 71.3566 4365.39 151.43C4676.12 259.014 4949.93 299.051 5274.72 223.903" stroke="url(#paint51_linear_1_82)" stroke-miterlimit="10"/>
<path d="M1 132.914C480.206 40.0352 976.639 3.37611 1464.7 25.1886C1889.7 44.1867 2314.2 127.496 2740.38 116.238C3066.65 107.654 3384.97 20.6151 3710.54 3.65756C3942.86 -8.44488 4167.45 45.1014 4392.25 97.0996C4691.66 166.337 4969.2 198.563 5274.72 145.861" stroke="url(#paint52_linear_1_82)" stroke-miterlimit="10"/>
<path d="M1 68.462C476.409 19.2079 956.669 4.07982 1434.54 14.8454C1854.68 24.3444 2274.61 66.2104 2695.1 60.5813C3052.73 55.7967 3408.53 11.0458 3766.02 2.18002C4273.07 -10.415 4766.13 123.275 5274.72 72.0505" stroke="url(#paint53_linear_1_82)" stroke-miterlimit="10"/>
<path d="M1 3.70943C1758.84 -6.00065 3516.89 14.3342 5274.72 3.70943" stroke="url(#paint54_linear_1_82)" stroke-miterlimit="10"/>
<defs>
<linearGradient id="paint0_linear_1_82" x1="2637.86" y1="1602.6" x2="2637.86" y2="1609.49" gradientUnits="userSpaceOnUse">
<stop stop-color="#333333"/>
<stop offset="1" stop-color="#333333" stop-opacity="0"/>
</linearGradient>
<linearGradient id="paint1_linear_1_82" x1="2637.86" y1="1518.68" x2="2637.86" y2="1644.54" gradientUnits="userSpaceOnUse">
<stop stop-color="#333333"/>
<stop offset="1" stop-color="#333333" stop-opacity="0"/>
</linearGradient>
<linearGradient id="paint2_linear_1_82" x1="2637.86" y1="1441.23" x2="2637.86" y2="1671.86" gradientUnits="userSpaceOnUse">
<stop stop-color="#333333"/>
<stop offset="1" stop-color="#333333" stop-opacity="0"/>
</linearGradient>
<linearGradient id="paint3_linear_1_82" x1="2637.88" y1="1366.4" x2="2637.88" y2="1696.12" gradientUnits="userSpaceOnUse">
<stop stop-color="#333333"/>
<stop offset="1" stop-color="#333333" stop-opacity="0"/>
</linearGradient>
<linearGradient id="paint4_linear_1_82" x1="2637.86" y1="1301.76" x2="2637.86" y2="1721.14" gradientUnits="userSpaceOnUse">
<stop stop-color="#333333"/>
<stop offset="1" stop-color="#333333" stop-opacity="0"/>
</linearGradient>
<linearGradient id="paint5_linear_1_82" x1="2637.86" y1="1235.8" x2="2637.86" y2="1758.23" gradientUnits="userSpaceOnUse">
<stop stop-color="#333333"/>
<stop offset="1" stop-color="#333333" stop-opacity="0"/>
</linearGradient>
<linearGradient id="paint6_linear_1_82" x1="2637.85" y1="1176.85" x2="2637.85" y2="1791.71" gradientUnits="userSpaceOnUse">
<stop stop-color="#333333"/>
<stop offset="1" stop-color="#333333" stop-opacity="0"/>
</linearGradient>
<linearGradient id="paint7_linear_1_82" x1="2637.86" y1="1124.56" x2="2637.86" y2="1820.8" gradientUnits="userSpaceOnUse">
<stop stop-color="#333333"/>
<stop offset="1" stop-color="#333333" stop-opacity="0"/>
</linearGradient>
<linearGradient id="paint8_linear_1_82" x1="2637.86" y1="1072.46" x2="2637.86" y2="1851.83" gradientUnits="userSpaceOnUse">
<stop stop-color="#333333"/>
<stop offset="1" stop-color="#333333" stop-opacity="0"/>
</linearGradient>
<linearGradient id="paint9_linear_1_82" x1="2637.86" y1="1021.45" x2="2637.86" y2="1882.65" gradientUnits="userSpaceOnUse">
<stop stop-color="#333333"/>
<stop offset="1" stop-color="#333333" stop-opacity="0"/>
</linearGradient>
<linearGradient id="paint10_linear_1_82" x1="2637.85" y1="974.868" x2="2637.85" y2="1907" gradientUnits="userSpaceOnUse">
<stop stop-color="#333333"/>
<stop offset="1" stop-color="#333333" stop-opacity="0"/>
</linearGradient>
<linearGradient id="paint11_linear_1_82" x1="2637.86" y1="930.265" x2="2637.86" y2="1928.1" gradientUnits="userSpaceOnUse">
<stop stop-color="#333333"/>
<stop offset="1" stop-color="#333333" stop-opacity="0"/>
</linearGradient>
<linearGradient id="paint12_linear_1_82" x1="2637.86" y1="887.537" x2="2637.86" y2="1945.37" gradientUnits="userSpaceOnUse">
<stop stop-color="#333333"/>
<stop offset="1" stop-color="#333333" stop-opacity="0"/>
</linearGradient>
<linearGradient id="paint13_linear_1_82" x1="2637.88" y1="845.205" x2="2637.88" y2="1958.82" gradientUnits="userSpaceOnUse">
<stop stop-color="#333333"/>
<stop offset="1" stop-color="#333333" stop-opacity="0"/>
</linearGradient>
<linearGradient id="paint14_linear_1_82" x1="2637.86" y1="815.64" x2="2637.86" y2="1924.4" gradientUnits="userSpaceOnUse">
<stop stop-color="#333333"/>
<stop offset="1" stop-color="#333333" stop-opacity="0"/>
</linearGradient>
<linearGradient id="paint15_linear_1_82" x1="2637.88" y1="795.726" x2="2637.88" y2="1857.59" gradientUnits="userSpaceOnUse">
<stop stop-color="#333333"/>
<stop offset="1" stop-color="#333333" stop-opacity="0"/>
</linearGradient>
<linearGradient id="paint16_linear_1_82" x1="2637.88" y1="775.968" x2="2637.88" y2="1800.56" gradientUnits="userSpaceOnUse">
<stop stop-color="#333333"/>
<stop offset="1" stop-color="#333333" stop-opacity="0"/>
</linearGradient>
<linearGradient id="paint17_linear_1_82" x1="2637.85" y1="752.925" x2="2637.85" y2="1757.19" gradientUnits="userSpaceOnUse">
<stop stop-color="#333333"/>
<stop offset="1" stop-color="#333333" stop-opacity="0"/>
</linearGradient>
<linearGradient id="paint18_linear_1_82" x1="2637.86" y1="730.264" x2="2637.86" y2="1723.12" gradientUnits="userSpaceOnUse">
<stop stop-color="#333333"/>
<stop offset="1" stop-color="#333333" stop-opacity="0"/>
</linearGradient>
<linearGradient id="paint19_linear_1_82" x1="2637.88" y1="704.685" x2="2637.88" y2="1699.37" gradientUnits="userSpaceOnUse">
<stop stop-color="#333333"/>
<stop offset="1" stop-color="#333333" stop-opacity="0"/>
</linearGradient>
<linearGradient id="paint20_linear_1_82" x1="2637.88" y1="678.587" x2="2637.88" y2="1686.56" gradientUnits="userSpaceOnUse">
<stop stop-color="#333333"/>
<stop offset="1" stop-color="#333333" stop-opacity="0"/>
</linearGradient>
<linearGradient id="paint21_linear_1_82" x1="2637.88" y1="650.756" x2="2637.88" y2="1679.69" gradientUnits="userSpaceOnUse">
<stop stop-color="#333333"/>
<stop offset="1" stop-color="#333333" stop-opacity="0"/>
</linearGradient>
<linearGradient id="paint22_linear_1_82" x1="2637.88" y1="619.315" x2="2637.88" y2="1676.23" gradientUnits="userSpaceOnUse">
<stop stop-color="#333333"/>
<stop offset="1" stop-color="#333333" stop-opacity="0"/>
</linearGradient>
<linearGradient id="paint23_linear_1_82" x1="2637.86" y1="585.679" x2="2637.86" y2="1667.91" gradientUnits="userSpaceOnUse">
<stop stop-color="#333333"/>
<stop offset="1" stop-color="#333333" stop-opacity="0"/>
</linearGradient>
<linearGradient id="paint24_linear_1_82" x1="2637.88" y1="553.658" x2="2637.88" y2="1640.99" gradientUnits="userSpaceOnUse">
<stop stop-color="#333333"/>
<stop offset="1" stop-color="#333333" stop-opacity="0"/>
</linearGradient>
<linearGradient id="paint25_linear_1_82" x1="2637.85" y1="521.755" x2="2637.85" y2="1594.23" gradientUnits="userSpaceOnUse">
<stop stop-color="#333333"/>
<stop offset="1" stop-color="#333333" stop-opacity="0"/>
</linearGradient>
<linearGradient id="paint26_linear_1_82" x1="2637.86" y1="481.35" x2="2637.86" y2="1529.47" gradientUnits="userSpaceOnUse">
<stop stop-color="#333333"/>
<stop offset="1" stop-color="#333333" stop-opacity="0"/>
</linearGradient>
<linearGradient id="paint27_linear_1_82" x1="2637.86" y1="435.63" x2="2637.86" y2="1433.82" gradientUnits="userSpaceOnUse">
<stop stop-color="#333333"/>
<stop offset="1" stop-color="#333333" stop-opacity="0"/>
</linearGradient>
<linearGradient id="paint28_linear_1_82" x1="2637.86" y1="414.505" x2="2637.86" y2="1384.85" gradientUnits="userSpaceOnUse">
<stop stop-color="#333333"/>
<stop offset="1" stop-color="#333333" stop-opacity="0"/>
</linearGradient>
<linearGradient id="paint29_linear_1_82" x1="2637.85" y1="398.87" x2="2637.85" y2="1322.64" gradientUnits="userSpaceOnUse">
<stop stop-color="#333333"/>
<stop offset="1" stop-color="#333333" stop-opacity="0"/>
</linearGradient>
<linearGradient id="paint30_linear_1_82" x1="2637.86" y1="387.586" x2="2637.86" y2="1254" gradientUnits="userSpaceOnUse">
<stop stop-color="#333333"/>
<stop offset="1" stop-color="#333333" stop-opacity="0"/>
</linearGradient>
<linearGradient id="paint31_linear_1_82" x1="2637.85" y1="379.119" x2="2637.85" y2="1204.39" gradientUnits="userSpaceOnUse">
<stop stop-color="#333333"/>
<stop offset="1" stop-color="#333333" stop-opacity="0"/>
</linearGradient>
<linearGradient id="paint32_linear_1_82" x1="2637.88" y1="379.774" x2="2637.88" y2="1154.52" gradientUnits="userSpaceOnUse">
<stop stop-color="#333333"/>
<stop offset="1" stop-color="#333333" stop-opacity="0"/>
</linearGradient>
<linearGradient id="paint33_linear_1_82" x1="2637.86" y1="372.015" x2="2637.86" y2="1123.88" gradientUnits="userSpaceOnUse">
<stop stop-color="#333333"/>
<stop offset="1" stop-color="#333333" stop-opacity="0"/>
</linearGradient>
<linearGradient id="paint34_linear_1_82" x1="2637.86" y1="362.131" x2="2637.86" y2="1121.39" gradientUnits="userSpaceOnUse">
<stop stop-color="#333333"/>
<stop offset="1" stop-color="#333333" stop-opacity="0"/>
</linearGradient>
<linearGradient id="paint35_linear_1_82" x1="2637.85" y1="348.59" x2="2637.85" y2="1113.45" gradientUnits="userSpaceOnUse">
<stop stop-color="#333333"/>
<stop offset="1" stop-color="#333333" stop-opacity="0"/>
</linearGradient>
<linearGradient id="paint36_linear_1_82" x1="2637.86" y1="330.118" x2="2637.86" y2="1111.65" gradientUnits="userSpaceOnUse">
<stop stop-color="#333333"/>
<stop offset="1" stop-color="#333333" stop-opacity="0"/>
</linearGradient>
<linearGradient id="paint37_linear_1_82" x1="2637.89" y1="287.911" x2="2637.89" y2="1137.2" gradientUnits="userSpaceOnUse">
<stop stop-color="#333333"/>
<stop offset="1" stop-color="#333333" stop-opacity="0"/>
</linearGradient>
<linearGradient id="paint38_linear_1_82" x1="2637.86" y1="239.667" x2="2637.86" y2="1165.75" gradientUnits="userSpaceOnUse">
<stop stop-color="#333333"/>
<stop offset="1" stop-color="#333333" stop-opacity="0"/>
</linearGradient>
<linearGradient id="paint39_linear_1_82" x1="2637.86" y1="192.308" x2="2637.86" y2="1188.14" gradientUnits="userSpaceOnUse">
<stop stop-color="#333333"/>
<stop offset="1" stop-color="#333333" stop-opacity="0"/>
</linearGradient>
<linearGradient id="paint40_linear_1_82" x1="2637.85" y1="147.244" x2="2637.85" y2="1196.74" gradientUnits="userSpaceOnUse">
<stop stop-color="#333333"/>
<stop offset="1" stop-color="#333333" stop-opacity="0"/>
</linearGradient>
<linearGradient id="paint41_linear_1_82" x1="2637.85" y1="105.164" x2="2637.85" y2="1172.01" gradientUnits="userSpaceOnUse">
<stop stop-color="#333333"/>
<stop offset="1" stop-color="#333333" stop-opacity="0"/>
</linearGradient>
<linearGradient id="paint42_linear_1_82" x1="2637.86" y1="83.6761" x2="2637.86" y2="1097.5" gradientUnits="userSpaceOnUse">
<stop stop-color="#333333"/>
<stop offset="1" stop-color="#333333" stop-opacity="0"/>
</linearGradient>
<linearGradient id="paint43_linear_1_82" x1="2637.86" y1="65.8043" x2="2637.86" y2="1016.38" gradientUnits="userSpaceOnUse">
<stop stop-color="#333333"/>
<stop offset="1" stop-color="#333333" stop-opacity="0"/>
</linearGradient>
<linearGradient id="paint44_linear_1_82" x1="2637.86" y1="49.1068" x2="2637.86" y2="933.417" gradientUnits="userSpaceOnUse">
<stop stop-color="#333333"/>
<stop offset="1" stop-color="#333333" stop-opacity="0"/>
</linearGradient>
<linearGradient id="paint45_linear_1_82" x1="2637.88" y1="35.7858" x2="2637.88" y2="846.155" gradientUnits="userSpaceOnUse">
<stop stop-color="#333333"/>
<stop offset="1" stop-color="#333333" stop-opacity="0"/>
</linearGradient>
<linearGradient id="paint46_linear_1_82" x1="2637.85" y1="24.7311" x2="2637.85" y2="753.632" gradientUnits="userSpaceOnUse">
<stop stop-color="#333333"/>
<stop offset="1" stop-color="#333333" stop-opacity="0"/>
</linearGradient>
<linearGradient id="paint47_linear_1_82" x1="2637.88" y1="17.2317" x2="2637.88" y2="657.457" gradientUnits="userSpaceOnUse">
<stop stop-color="#333333"/>
<stop offset="1" stop-color="#333333" stop-opacity="0"/>
</linearGradient>
<linearGradient id="paint48_linear_1_82" x1="2637.86" y1="10.9739" x2="2637.86" y2="561.123" gradientUnits="userSpaceOnUse">
<stop stop-color="#333333"/>
<stop offset="1" stop-color="#333333" stop-opacity="0"/>
</linearGradient>
<linearGradient id="paint49_linear_1_82" x1="2637.86" y1="6.95312" x2="2637.86" y2="451.055" gradientUnits="userSpaceOnUse">
<stop stop-color="#333333"/>
<stop offset="1" stop-color="#333333" stop-opacity="0"/>
</linearGradient>
<linearGradient id="paint50_linear_1_82" x1="2637.86" y1="4.35132" x2="2637.86" y2="355.954" gradientUnits="userSpaceOnUse">
<stop stop-color="#333333"/>
<stop offset="1" stop-color="#333333" stop-opacity="0"/>
</linearGradient>
<linearGradient id="paint51_linear_1_82" x1="2637.86" y1="2.97974" x2="2637.86" y2="262.521" gradientUnits="userSpaceOnUse">
<stop stop-color="#333333"/>
<stop offset="1" stop-color="#333333" stop-opacity="0"/>
</linearGradient>
<linearGradient id="paint52_linear_1_82" x1="2637.86" y1="1.92749" x2="2637.86" y2="172.05" gradientUnits="userSpaceOnUse">
<stop stop-color="#333333"/>
<stop offset="1" stop-color="#333333" stop-opacity="0"/>
</linearGradient>
<linearGradient id="paint53_linear_1_82" x1="2637.86" y1="1.33813" x2="2637.86" y2="83.795" gradientUnits="userSpaceOnUse">
<stop stop-color="#333333"/>
<stop offset="1" stop-color="#333333" stop-opacity="0"/>
</linearGradient>
<linearGradient id="paint54_linear_1_82" x1="2637.86" y1="1" x2="2637.86" y2="6.87611" gradientUnits="userSpaceOnUse">
<stop stop-color="#333333"/>
<stop offset="1" stop-color="#333333" stop-opacity="0"/>
</linearGradient>
</defs>
</svg>
