<svg width="34" height="35" viewBox="0 0 34 35" fill="none" xmlns="http://www.w3.org/2000/svg">
<path d="M26.0312 3.6875C24.5642 3.6875 23.375 4.87674 23.375 6.34375V28.6562C23.375 30.1233 24.5642 31.3125 26.0312 31.3125H27.0938C28.5608 31.3125 29.75 30.1233 29.75 28.6562V6.34375C29.75 4.87674 28.5608 3.6875 27.0938 3.6875H26.0312Z" fill="#A685FA"/>
<path d="M13.8125 12.7188C13.8125 11.2517 15.0017 10.0625 16.4688 10.0625H17.5312C18.9983 10.0625 20.1875 11.2517 20.1875 12.7188V28.6562C20.1875 30.1233 18.9983 31.3125 17.5312 31.3125H16.4688C15.0017 31.3125 13.8125 30.1233 13.8125 28.6562V12.7188Z" fill="#A685FA"/>
<path d="M4.25 19.0938C4.25 17.6267 5.43924 16.4375 6.90625 16.4375H7.96875C9.43576 16.4375 10.625 17.6267 10.625 19.0938V28.6562C10.625 30.1233 9.43576 31.3125 7.96875 31.3125H6.90625C5.43924 31.3125 4.25 30.1233 4.25 28.6562V19.0938Z" fill="#A685FA"/>
</svg>
