<svg width="35" height="35" viewBox="0 0 35 35" fill="none" xmlns="http://www.w3.org/2000/svg">
<path d="M17.5 3.6875C18.0868 3.6875 18.5625 4.1632 18.5625 4.75V7.9375C18.5625 8.5243 18.0868 9 17.5 9C16.9132 9 16.4375 8.5243 16.4375 7.9375V4.75C16.4375 4.1632 16.9132 3.6875 17.5 3.6875Z" fill="#A685FA"/>
<path d="M11.125 17.5C11.125 13.9792 13.9792 11.125 17.5 11.125C21.0208 11.125 23.875 13.9792 23.875 17.5C23.875 21.0208 21.0208 23.875 17.5 23.875C13.9792 23.875 11.125 21.0208 11.125 17.5Z" fill="#A685FA"/>
<path d="M27.267 9.23565C27.6819 8.82071 27.6819 8.14798 27.267 7.73304C26.8521 7.31811 26.1793 7.31811 25.7644 7.73304L23.5105 9.98695C23.0955 10.4019 23.0955 11.0746 23.5105 11.4895C23.9254 11.9045 24.5982 11.9045 25.0131 11.4895L27.267 9.23565Z" fill="#A685FA"/>
<path d="M31.3125 17.5C31.3125 18.0868 30.8368 18.5625 30.25 18.5625H27.0625C26.4757 18.5625 26 18.0868 26 17.5C26 16.9132 26.4757 16.4375 27.0625 16.4375H30.25C30.8368 16.4375 31.3125 16.9132 31.3125 17.5Z" fill="#A685FA"/>
<path d="M25.7642 27.2669C26.1792 27.6818 26.8519 27.6818 27.2668 27.2669C27.6818 26.8519 27.6818 26.1792 27.2668 25.7643L25.0129 23.5104C24.598 23.0954 23.9253 23.0954 23.5103 23.5104C23.0954 23.9253 23.0954 24.598 23.5103 25.013L25.7642 27.2669Z" fill="#A685FA"/>
<path d="M17.5 26C18.0868 26 18.5625 26.4757 18.5625 27.0625V30.25C18.5625 30.8368 18.0868 31.3125 17.5 31.3125C16.9132 31.3125 16.4375 30.8368 16.4375 30.25V27.0625C16.4375 26.4757 16.9132 26 17.5 26Z" fill="#A685FA"/>
<path d="M11.4898 25.013C11.9047 24.598 11.9047 23.9253 11.4898 23.5104C11.0749 23.0954 10.4021 23.0954 9.98719 23.5104L7.73329 25.7643C7.31836 26.1792 7.31836 26.8519 7.73329 27.2669C8.14822 27.6818 8.82096 27.6818 9.23589 27.2669L11.4898 25.013Z" fill="#A685FA"/>
<path d="M9 17.5C9 18.0868 8.5243 18.5625 7.9375 18.5625H4.75C4.1632 18.5625 3.6875 18.0868 3.6875 17.5C3.6875 16.9132 4.1632 16.4375 4.75 16.4375H7.9375C8.5243 16.4375 9 16.9132 9 17.5Z" fill="#A685FA"/>
<path d="M9.98703 11.4895C10.402 11.9045 11.0747 11.9045 11.4896 11.4895C11.9046 11.0746 11.9046 10.4019 11.4896 9.98693L9.23573 7.73303C8.8208 7.3181 8.14806 7.3181 7.73313 7.73303C7.3182 8.14796 7.3182 8.8207 7.73313 9.23563L9.98703 11.4895Z" fill="#A685FA"/>
</svg>
